<?xml version="1.0" encoding="UTF-8" standalone="no"?>

<svg
   width="512"
   height="512"
   viewBox="0 0 512 512"
   version="1.1"
   id="svg5"
   inkscape:version="1.1.1 (3bf5ae0d25, 2021-09-20, custom)"
   sodipodi:docname="logo.svg"
   xmlns:inkscape="http://www.inkscape.org/namespaces/inkscape"
   xmlns:sodipodi="http://sodipodi.sourceforge.net/DTD/sodipodi-0.dtd"
   xmlns="http://www.w3.org/2000/svg"
   xmlns:svg="http://www.w3.org/2000/svg">
  <sodipodi:namedview
     id="namedview7"
     pagecolor="#ffffff"
     bordercolor="#666666"
     borderopacity="1.0"
     inkscape:pageshadow="2"
     inkscape:pageopacity="0.0"
     inkscape:pagecheckerboard="0"
     inkscape:document-units="px"
     showgrid="false"
     inkscape:zoom="1.2578125"
     inkscape:cx="341.86335"
     inkscape:cy="273.09317"
     inkscape:window-width="1888"
     inkscape:window-height="1008"
     inkscape:window-x="16"
     inkscape:window-y="59"
     inkscape:window-maximized="1"
     inkscape:current-layer="layer1" />
  <defs
     id="defs2" />
  <g
     inkscape:label="Layer 1"
     inkscape:groupmode="layer"
     id="layer1">
    <g
       aria-label="Hanul Cu Noroc"
       id="text14168"
       style="font-size:85.3333px;line-height:1.25;font-family:Cookie;-inkscape-font-specification:Cookie;letter-spacing:0px;word-spacing:0px"
       transform="matrix(1.1820069,0,0,1.1820069,-57.413744,-8.1308659)">
      <path
         d="m 62.956783,208.35568 q 0,2.04799 1.024,3.75466 1.023999,1.62133 1.023999,2.64533 0,0.93867 -0.511999,1.70667 -0.426667,0.768 -1.194666,0.768 -1.450667,0 -2.389333,-2.47467 -0.938666,-2.47466 -0.938666,-5.20533 0,-4.096 2.986665,-7.33866 3.071999,-3.24267 7.76533,-3.24267 3.157332,0 4.693332,3.072 1.621332,2.98667 1.621332,6.82666 0,3.84 -0.255999,7.25334 -0.170667,3.32799 -0.341334,5.20533 -0.170666,1.792 -0.682666,5.80266 -0.512,3.92533 -0.682666,5.46133 6.826663,0 14.335994,-6.912 1.023999,-12.28799 2.815998,-19.19999 1.877333,-6.99733 3.754666,-9.81333 1.877332,-2.816 4.010665,-2.816 2.218665,0 3.583995,1.96267 1.45067,1.96267 1.45067,4.69333 0,10.06933 -8.959997,21.75999 -0.512,6.74133 -0.512,12.45866 0,5.632 1.621333,11.008 1.706666,5.29066 1.706666,5.888 0,0.68266 -0.938667,1.024 -0.938666,0.42666 -2.047999,0.42666 -2.986665,0 -4.863998,-1.536 -0.938666,-0.768 -1.535999,-5.20533 -0.597333,-4.43733 -0.597333,-8.27733 0,-3.92533 0.256,-8.44799 -7.594664,6.48533 -14.421328,6.74133 -0.08533,1.19466 -0.170666,4.01066 -0.08533,2.73067 -0.256,4.096 -0.170667,1.28 -0.682666,2.98667 -0.853333,3.15733 -4.095999,3.15733 -1.962666,0 -1.962666,-3.328 0,-3.41333 1.024,-11.776 -3.839998,-1.62133 -3.839998,-5.71733 0,-2.98666 1.535999,-5.03466 1.535999,-2.13333 3.754665,-2.13333 0.768,-7.85067 0.768,-12.11733 0,-7.68 -2.389333,-7.68 -5.461331,0 -5.461331,5.54667 z m 39.338647,-6.4 q 0,-1.28 -0.42666,-2.304 -0.34134,-1.10933 -0.93867,-1.10933 -2.389332,0 -4.351997,18.51732 5.717327,-8.70399 5.717327,-15.10399 z M 69.783447,225.337 q -1.194666,0.85333 -1.194666,2.304 0,1.45067 0.682666,2.38933 z"
         id="path20104" />
      <path
         d="m 128.15136,250.59566 q -3.328,0 -5.03467,-1.36534 -0.59733,-0.59733 -0.59733,-2.98666 0,-2.47467 0.17067,-6.57066 -2.21867,5.54666 -4.43733,8.27733 -2.13334,2.64533 -5.54667,2.64533 -3.41333,0 -5.97333,-3.15733 -2.56,-3.24267 -2.56,-10.06933 0,-6.912 3.84,-12.20267 3.92533,-5.29066 10.24,-5.29066 2.73066,0 6.14399,3.584 0.68267,-0.93867 2.38934,-2.21867 1.792,-1.36533 2.98666,-1.36533 1.28,0 1.28,3.24267 0,0.85333 -0.512,3.32799 -0.42666,2.47467 -1.024,3.584 -0.768,1.96267 -0.768,13.90933 0,2.304 0.512,2.304 1.45067,-0.0853 4.01067,-3.584 2.56,-3.584 5.03466,-9.13066 2.56,-5.54667 3.072,-5.54667 0.59733,0 0.59733,0.68267 0,2.38933 -2.47466,7.59466 -6.74133,14.336 -11.34933,14.336 z M 117.7407,223.289 q -2.38934,0 -5.12,3.584 -2.64533,3.49867 -2.64533,8.27733 0,4.77867 1.36533,7.85066 1.45067,3.072 3.75466,3.072 2.816,0 8.27733,-14.07999 0.0853,-0.68267 0.17067,-2.304 0.17067,-1.70667 0.256,-2.56 -0.768,-1.36533 -2.73066,-2.56 -1.87734,-1.28 -3.328,-1.28 z"
         id="path20106" />
      <path
         d="m 143.5113,245.56099 0.0853,2.64534 q 0,2.38933 -1.36534,2.38933 -2.048,0 -3.92533,-0.512 -1.87733,-0.59734 -1.87733,-1.536 0,-1.024 0.42666,-6.74133 0.512,-5.80267 0.512,-8.704 v -5.03466 q 0,-4.096 0.85334,-4.94933 0.85333,-0.85334 2.98666,-2.47467 2.21867,-1.62133 3.15733,-1.62133 1.024,0 1.28,0.34133 0.256,0.34133 0.256,1.28 0,4.52266 -1.70666,8.53333 -0.42667,4.864 -0.42667,6.74133 0.34134,-0.512 3.584,-5.80266 3.24267,-5.29067 5.46133,-7.76533 2.304,-2.47467 4.096,-2.47467 1.792,0 3.15733,1.19467 1.45067,1.19466 1.45067,2.98666 0,3.75467 -0.85334,11.09333 -0.76799,7.25333 -0.76799,9.216 0,1.87733 0.51199,1.87733 1.45067,-0.0853 4.01067,-3.584 2.56,-3.584 5.03466,-9.13066 2.56,-5.54667 3.072,-5.54667 0.59734,0 0.59734,0.68267 0,2.38933 -2.47467,7.59466 -6.74133,14.336 -11.34933,14.336 -3.328,0 -5.03466,-1.36534 -0.59734,-0.59733 -0.59734,-3.07199 0,-2.56 0.42667,-8.192 0.512,-5.71733 0.512,-8.53333 0,-2.816 -1.024,-2.816 -0.93867,0 -5.12,5.888 -4.18133,5.80266 -4.43733,7.424 -0.512,2.98666 -0.512,5.63199 z"
         id="path20108" />
      <path
         d="m 168.51398,242.74499 0.512,-9.55733 q 0,-9.13066 0.85333,-9.98399 0.85334,-0.85333 2.98667,-2.47467 2.21866,-1.70666 3.15733,-1.70666 1.024,0 1.28,0.34133 0.256,0.34133 0.256,1.36533 0,3.66934 -1.62133,7.424 -1.28,7.85066 -1.28,12.88533 0,5.03466 1.62133,5.03466 1.96267,0 4.608,-3.41333 2.64533,-3.41333 5.29066,-10.15466 0.768,-8.53333 1.19467,-9.216 0.512,-0.68266 2.38933,-2.47466 1.87733,-1.792 3.072,-1.792 1.28,0 1.28,3.24266 0,0.85334 -0.512,3.328 -0.42667,2.47467 -1.024,3.584 -0.93867,2.38933 -0.93867,14.76266 0,2.304 0.512,2.304 1.45067,-0.0853 4.01067,-3.584 2.56,-3.584 5.03466,-9.13066 2.56,-5.54667 3.072,-5.54667 0.59734,0 0.59734,0.68267 0,2.38933 -2.47467,7.59466 -6.74133,14.336 -11.34933,14.336 -3.328,0 -5.03466,-1.36534 -0.59734,-0.59733 -0.59734,-3.66933 0,-3.072 0.256,-6.82666 -2.73066,5.80266 -5.46133,8.87466 -2.73066,2.98667 -6.14399,2.98667 -3.328,0 -4.43734,-1.792 -1.10933,-1.792 -1.10933,-6.05867 z"
         id="path20110" />
      <path
         d="m 205.88996,250.59566 q -1.87734,0 -3.49867,-0.42667 -1.536,-0.512 -1.87733,-0.93867 -0.85333,-1.02399 -0.85333,-10.58132 0,-9.64267 2.13333,-26.11199 1.792,-13.568 8.36266,-13.568 1.536,0 2.21867,1.70667 0.68266,1.62133 0.68266,3.15733 0,11.09333 -6.74133,24.83199 -0.256,7.08266 -0.256,12.37333 0,5.20533 0.93867,5.20533 1.45067,-0.0853 4.01066,-3.584 2.56,-3.584 5.03467,-9.13066 2.56,-5.54667 3.072,-5.54667 0.59733,0 0.59733,0.68267 0,2.38933 -2.47467,7.59466 -6.74133,14.336 -11.34932,14.336 z m 5.03466,-45.99465 q 0,-2.73067 -0.68267,-2.73067 -2.55999,0 -3.75466,21.248 4.43733,-11.69067 4.43733,-18.51733 z"
         id="path20112" />
      <path
         d="m 266.56181,236.089 q 0.59734,-0.85334 1.70667,-2.98667 2.73066,-4.864 3.24266,-4.864 0.59734,0 0.59734,0.68267 0,4.18133 -4.352,10.58133 -7.85066,11.51999 -20.90666,11.51999 -3.66933,0 -6.74133,-1.70666 -3.072,-1.70667 -4.864,-4.352 -3.66933,-5.376 -3.66933,-11.264 0,-14.84799 7.68,-23.89332 7.76533,-9.13066 18.34666,-9.13066 4.01066,0 6.57066,2.38933 2.56,2.304 2.56,5.888 0,3.584 -1.792,6.656 -1.792,3.07199 -4.352,3.07199 -2.47466,0 -2.47466,-1.36533 0,-1.536 1.62133,-3.49866 1.70667,-1.96267 1.70667,-3.92534 0,-6.05866 -6.48534,-6.05866 -6.39999,0 -11.60532,8.61866 -5.20534,8.61867 -5.20534,17.74933 0,6.31466 3.584,11.26399 3.584,4.864 10.06933,4.864 7.68,0 14.76266,-10.23999 z"
         id="path20114" />
      <path
         d="m 266.73252,242.74499 0.512,-9.55733 q 0,-9.13066 0.85334,-9.98399 0.85333,-0.85333 2.98666,-2.47467 2.21867,-1.70666 3.15734,-1.70666 1.02399,0 1.27999,0.34133 0.256,0.34133 0.256,1.36533 0,3.66934 -1.62133,7.424 -1.28,7.85066 -1.28,12.88533 0,5.03466 1.62133,5.03466 1.96267,0 4.608,-3.41333 2.64534,-3.41333 5.29067,-10.15466 0.768,-8.53333 1.19466,-9.216 0.512,-0.68266 2.38934,-2.47466 1.87733,-1.792 3.07199,-1.792 1.28,0 1.28,3.24266 0,0.85334 -0.512,3.328 -0.42666,2.47467 -1.024,3.584 -0.93866,2.38933 -0.93866,14.76266 0,2.304 0.512,2.304 1.45066,-0.0853 4.01066,-3.584 2.56,-3.584 5.03467,-9.13066 2.56,-5.54667 3.072,-5.54667 0.59733,0 0.59733,0.68267 0,2.38933 -2.47467,7.59466 -6.74133,14.336 -11.34932,14.336 -3.328,0 -5.03467,-1.36534 -0.59733,-0.59733 -0.59733,-3.66933 0,-3.072 0.256,-6.82666 -2.73067,5.80266 -5.46133,8.87466 -2.73067,2.98667 -6.144,2.98667 -3.328,0 -4.43733,-1.792 -1.10934,-1.792 -1.10934,-6.05867 z"
         id="path20116" />
      <path
         d="m 333.97511,218.681 q -1.36533,8.704 -3.84,16.896 -2.38933,8.19199 -5.29066,12.03199 -2.90133,3.84 -6.99733,3.84 -2.98667,0 -2.98667,-2.304 0,-1.87733 1.28,-2.64533 1.28,-0.768 2.98667,-1.10933 1.792,-0.42667 2.304,-0.93867 3.15733,-3.328 5.80266,-11.86133 2.73067,-8.61866 3.92533,-17.49332 -3.66933,-3.84 -3.66933,-6.22934 0,-2.38933 1.36534,-5.46133 1.36533,-3.15733 3.24266,-3.15733 1.10933,0 1.96267,2.73067 0.85333,2.73066 0.85333,6.82666 4.43733,5.632 6.912,9.728 2.64533,-8.704 7.25333,-14.592 4.608,-5.97333 10.58133,-5.97333 2.13333,0 3.41333,1.536 1.28,1.536 1.28,3.41333 0,1.87734 -0.768,3.41334 -0.68267,1.45066 -1.87733,1.45066 -1.19467,0 -1.19467,-1.19466 0,-1.19467 -0.768,-1.792 -0.68267,-0.68267 -1.792,-0.68267 -3.49867,0 -6.57066,3.66933 -4.352,5.20533 -7.25333,14.848 5.63199,12.11732 5.63199,19.62665 0,3.072 -1.36533,5.46134 -1.36533,2.30399 -4.01066,2.30399 -5.632,0 -5.632,-9.55733 0,-6.74133 1.024,-12.79999 -2.56,-5.46133 -5.80267,-9.984 z m 7.85067,15.616 q -0.42667,3.072 -0.42667,6.31466 0,3.24267 0.42667,5.03467 0.42666,1.792 0.93866,1.792 1.024,0 1.024,-3.49867 0,-3.49866 -1.96266,-9.64266 z"
         id="path20118" />
      <path
         d="m 383.98039,231.65167 q 3.41333,-1.10934 4.69333,-1.87734 1.36533,-0.85333 2.048,-1.28 l 1.024,-0.59733 q 0.42667,-0.256 0.68267,-0.256 0.68266,0 0.68266,0.768 0,0.768 -2.64533,2.73067 -2.64533,1.87733 -6.57066,3.41333 -0.59734,7.16799 -4.52267,11.60533 -3.92533,4.43733 -11.17866,4.43733 -5.29066,0 -8.10666,-4.18133 -2.816,-4.26667 -2.816,-9.89867 0,-5.71733 3.328,-10.75199 3.41333,-5.03467 8.70399,-5.03467 2.38934,-1.70666 5.632,-1.70666 3.328,0 6.144,3.49866 2.816,3.49867 2.90133,9.13067 z m -5.54666,4.35199 -3.072,0.17067 q -3.92533,0 -6.656,-2.304 -2.73067,-2.38933 -2.73067,-5.20533 0,-2.816 0.93867,-4.864 -3.66933,2.90133 -3.66933,11.43466 0,4.096 1.70667,7.85067 1.70666,3.66933 5.37599,3.66933 3.66933,0 5.71733,-3.072 2.048,-3.15733 2.38934,-7.68 z m -5.29067,-14.16532 q -1.36533,0 -2.13333,1.28 -0.768,1.19466 -0.768,2.64533 0,3.15733 2.13333,5.12 2.21867,1.96266 5.12,1.96266 h 1.024 q -0.17067,-4.18133 -1.45067,-7.59466 -1.19466,-3.41333 -3.92533,-3.41333 z"
         id="path20120" />
      <path
         d="m 395.75641,227.897 4.69333,-0.512 q 0.68266,0 1.19466,0.768 0.512,0.768 0.512,1.62133 0,0.85334 -0.59733,5.80267 -0.512,4.94933 -0.512,7.85066 0,2.816 0.512,2.816 1.45067,-0.0853 4.01067,-3.584 2.55999,-3.584 5.03466,-9.13066 2.56,-5.54667 3.072,-5.54667 0.59733,0 0.59733,0.68267 0,2.38933 -2.47466,7.59466 -6.74133,14.336 -11.34933,14.336 -3.328,0 -5.03467,-1.36534 -0.59733,-0.59733 -0.59733,-7.42399 0,-6.82667 1.45067,-11.69066 -4.94934,0 -6.912,-3.15734 -1.024,-1.62133 -1.024,-3.66933 0,-2.048 0.85333,-3.584 0.85333,-1.536 2.38933,-1.536 1.62134,0 2.90134,1.70667 1.36533,1.62133 1.36533,3.66933 0,2.048 -1.19467,4.096 0.34134,0.256 1.10934,0.256 z"
         id="path20122" />
      <path
         d="m 436.80165,231.65167 q 3.41333,-1.10934 4.69333,-1.87734 1.36533,-0.85333 2.048,-1.28 l 1.024,-0.59733 q 0.42667,-0.256 0.68267,-0.256 0.68266,0 0.68266,0.768 0,0.768 -2.64533,2.73067 -2.64533,1.87733 -6.57066,3.41333 -0.59734,7.16799 -4.52267,11.60533 -3.92533,4.43733 -11.17866,4.43733 -5.29067,0 -8.10666,-4.18133 -2.816,-4.26667 -2.816,-9.89867 0,-5.71733 3.328,-10.75199 3.41333,-5.03467 8.70399,-5.03467 2.38933,-1.70666 5.632,-1.70666 3.328,0 6.144,3.49866 2.816,3.49867 2.90133,9.13067 z m -5.54667,4.35199 -3.07199,0.17067 q -3.92534,0 -6.656,-2.304 -2.73067,-2.38933 -2.73067,-5.20533 0,-2.816 0.93867,-4.864 -3.66933,2.90133 -3.66933,11.43466 0,4.096 1.70666,7.85067 1.70667,3.66933 5.376,3.66933 3.66933,0 5.71733,-3.072 2.048,-3.15733 2.38933,-7.68 z m -5.29066,-14.16532 q -1.36533,0 -2.13333,1.28 -0.768,1.19466 -0.768,2.64533 0,3.15733 2.13333,5.12 2.21867,1.96266 5.12,1.96266 h 1.024 q -0.17067,-4.18133 -1.45067,-7.59466 -1.19466,-3.41333 -3.92533,-3.41333 z"
         id="path20124" />
      <path
         d="m 456.42836,229.433 0.68266,-4.352 q 0,-0.93866 -0.59733,-1.70666 -0.59733,-0.768 -1.536,-0.768 -3.15733,0 -5.46133,4.77866 -2.304,4.69333 -2.304,9.04533 0,4.352 1.792,7.08266 1.792,2.64534 4.352,2.64534 2.64533,0 4.69333,-1.19467 2.048,-1.19467 3.75467,-3.41333 3.58399,-4.69333 6.14399,-10.66666 0.68267,-1.536 1.024,-2.21867 0.42667,-0.68267 0.85334,-0.68267 0.512,0 0.512,0.68267 0,2.816 -1.96267,6.74133 -1.96267,3.92533 -3.328,6.05866 -1.28,2.048 -3.328,4.352 -4.26666,4.77867 -10.66666,4.77867 -4.864,0 -7.424,-3.41333 -2.47466,-3.49867 -2.47466,-7.424 0,-9.728 4.18133,-14.76266 4.26666,-5.12 10.752,-5.12 2.73066,0 4.26666,1.45067 1.62133,1.36533 1.62133,3.15733 0,3.328 -1.19466,4.94933 -1.19467,1.62133 -2.90134,1.62133 -1.45066,0 -1.45066,-1.62133 z"
         id="path20126" />
    </g>
  </g>
</svg>
